<svg width="200" height="23" viewBox="0 0 200 23" fill="none" xmlns="http://www.w3.org/2000/svg">
<path d="M35.2254 5.09725H33.9951C32.3959 6.86114 30.5027 7.95141 28.4318 8.64586L29.1016 9.86808C29.7851 9.84725 30.5984 9.34725 30.8717 9.25697L31.152 9.92364H38.0754L38.3146 9.20141C38.9229 9.36808 39.5175 9.6528 40.1463 9.75697L40.6315 8.42364C38.6222 7.88197 36.7837 6.69447 35.2254 5.09725ZM32.2318 8.52086C33.0315 7.94447 33.9473 7.26391 34.6376 6.54169C35.4441 7.25002 36.3736 7.92364 37.1459 8.52086H32.2318Z" fill="black"/>
<path d="M9.88279 11.0903H12.8422V9.86804H9.3907V8.16665H12.1792V6.94443H9.3907V4.94443H8.13314V6.94443H7.10795C7.32666 6.2222 7.42918 5.63193 7.42918 5.63193L6.13061 5.30554C6.13061 5.30554 5.58384 7.4722 4.93456 8.38887V7.5347H3.63599V4.94443H2.39893V7.5347H0.410074V8.75692H2.30325C2.05037 9.50692 1.41476 11.0278 0 12.8055L0.669788 13.9028C1.49677 13.2361 2.08454 12.2083 2.39893 11.5764V17.5H3.64966V11.1319C3.8752 11.5 4.2306 11.9861 4.71585 12.3403L5.58384 11.1458C5.5565 11.125 5.52233 11.1111 5.49499 11.0833H7.66155C7.23097 12.0416 6.22629 13.7708 4.15542 15.2778L4.85254 16.4236C6.55435 15.4236 7.58637 13.8472 8.13997 12.7569V17.493H9.3907V12.8194C9.95797 13.8819 10.9353 15.3194 12.3432 16.2778L13.0404 15.125C11.2019 13.6805 10.2997 12.0625 9.88279 11.0903ZM3.82052 8.75692H4.66801L5.72737 9.49998C6.10327 9.27776 6.41083 8.75693 6.6637 8.17359H8.13314V9.87498H5.05075V10.7361C4.46297 10.1528 4.06657 9.36804 3.82052 8.75692Z" fill="black"/>
<path d="M21.5289 14.2986L19.0616 14.743V11.6458H21.2282V10.2708H15.2548V11.6458H17.4213V15.0486L14.7012 15.5347L14.9404 16.8889L21.7613 15.6389L21.5289 14.2986Z" fill="black"/>
<path d="M25.944 13.3125C25.944 13.3125 25.5681 14.9028 25.2127 15.1806C24.9052 15.6667 24.5908 15.0278 24.5908 15.0278C23.7433 13.6667 23.4084 10.8403 23.2785 8.5625H26.5455V7.05555H25.4793L26.1354 6.58333L24.8847 4.875L23.7843 5.52083L24.7685 7.04861H23.217C23.1897 5.90972 23.1965 5.11805 23.1965 5.11805H21.8296C21.8296 5.11805 21.7749 5.88194 21.7818 7.04861H14.8447V8.55555H21.8228C21.9253 11.0625 22.349 14.3819 23.6749 16.4514C24.2696 17.3681 25.1307 17.493 25.6843 17.1597C26.3541 16.7569 26.648 15.7639 26.648 15.7639L26.9692 14.7917L25.944 13.3125Z" fill="black"/>
<path d="M34.2275 12.4167H40.2898V11.2292H28.8419V12.4167H32.5941L30.9196 15.6042C29.9012 15.6458 29.1904 15.6667 29.1904 15.6667L29.4228 16.8889C29.4228 16.8889 35.2937 16.9722 38.2189 16.1806L39.1279 17.2014L40.2488 16.3403C39.3398 15.3333 37.0229 12.9722 37.0229 12.9722L35.861 13.5208L37.2484 15.0833C36.2779 15.2986 34.3369 15.4375 32.6009 15.5278L34.2275 12.4167Z" fill="black"/>
<path d="M51.5873 15.5972V9.62502H54.1093V8.30558H51.5873V5.28474H50.2614V8.30558H47.9308V9.62502H50.2614V15.5972H47.0492V16.9097H54.4305V15.5972H51.5873Z" fill="black"/>
<path d="M46.3042 10.5694C46.3042 10.5694 47.0082 9.76385 47.5208 8.61108C48.2521 7.00691 46.7826 7.04163 46.7826 7.04163H45.6207V5.01385H44.3974V7.03469H42.429V8.30552H46.0855C46.0855 8.30552 44.4999 11.368 42.0736 12.9166L42.5999 14.0972C42.5999 14.0972 43.6661 13.7708 44.4384 12.6527L44.4315 17.3889H45.7574V12.2083C45.7574 12.2083 46.6664 13.3125 47.5208 13.625L48.2111 12.5833C47.1039 11.8958 46.3042 10.5694 46.3042 10.5694Z" fill="black"/>
<path d="M200 6.38194C199.508 11.8125 196.788 17.4931 191.552 19.7431C188.709 21.1736 185.354 21.6042 181.977 21.5694V18.2917C188.272 18.4306 192.742 16.6806 195.175 11.5417C196.104 9.79861 196.323 8.20139 196.637 6.375H200V6.38194ZM181.977 1.21528V4.375H191.211L191.204 1.21528H181.977Z" fill="black"/>
<path d="M135.393 5.18056C134.969 7.50001 133.233 9.74306 131.36 11.2083V21.8056H128.271V13.4792C128.292 13.4097 126.802 14.2917 126.05 14.5069C124.758 14.9375 123.46 15.4306 122.052 15.3958V12.5139C123.562 12.1945 124.779 12.0972 126.44 11.2431C129.433 9.68056 131.21 7.71528 132.167 5.18751H135.393V5.18056Z" fill="black"/>
<path d="M178.075 21.5417H175.949V17.6528H178.075V21.5417ZM173.249 21.5417H175.361V17.6528H173.249V21.5417ZM159.587 1.29865L162.629 10.4028H165.889L162.922 1.29865H159.587ZM175.368 1.23615C175.095 2.95837 174.787 5.09726 174.158 6.95142C172.894 12.1945 168.78 17.3403 163.004 18.9445V22.2223C166.381 21.4723 169.689 19.5834 172.265 17.0209C176.229 12.5556 177.665 7.09726 178.464 1.23615H175.368Z" fill="black"/>
<path d="M119.571 17.9375V21.7847C119.571 21.7847 117.486 21.7986 117.418 21.7847V17.9375H119.571ZM114.609 21.7847H116.734V17.9375H114.609V21.7847ZM103.147 6.59028V9.83334H111.629C111.629 11.5 111.335 12.7708 110.768 14.0833C109.435 16.7361 106.845 18.3958 103.933 18.5833V21.8333C105.553 21.8611 107.214 21.2292 108.656 20.5903C112.203 19.0903 114.144 15.3056 114.67 11.7014C114.739 11.0556 114.916 9.83334 114.916 9.83334H121.252V6.59028H103.147ZM103.147 0.979172V4.08334H121.245V0.979172C121.184 0.937505 103.147 0.979172 103.147 0.979172Z" fill="black"/>
<path d="M86.5188 0.625016V18.2986C90.1958 18.1528 94.3581 16.0695 96.1214 11.2986C96.7912 9.59029 97.1056 8.24307 97.3174 6.60418H100.441C100.263 12.2083 96.9689 18.2083 91.5286 20.3889C89.0681 21.4236 86.1976 21.9236 83.3202 21.7847V0.625016H86.5188Z" fill="black"/>
<path d="M78.9461 0.611092C78.9461 7.96526 78.5019 16.2014 71.5101 20.0208C69.0838 21.375 66.1108 21.8264 63.2334 21.8958V18.6805C68.5576 18.3819 72.1252 16.9791 74.0936 12.7291C75.3238 10.118 75.604 6.87498 75.5698 3.72915H66.9241C66.5755 4.58331 66.5619 5.42359 66.0356 6.21526C64.7712 8.36109 62.8439 9.84026 60.2741 10.2847V6.87498C61.6 6.73609 63.1309 5.1597 63.4111 3.65276C63.6913 2.68748 63.6913 1.60415 63.9032 0.604148H78.9461V0.611092Z" fill="black"/>
<path d="M145.05 0V3.69444H156.088V13.7986H152.869V6.83333H145.05V18.6597H156.006V21.7847H142.002V6.83333H138.147V3.69444H142.002V0H145.05Z" fill="black"/>
</svg>
